<svg class="icon" viewBox="0 0 1024 1024" xmlns="http://www.w3.org/2000/svg" width="128" height="128"><path d="M454.144 394.24h92.672v-34.816c0-18.944 9.216-35.328 23.04-46.08v-11.776c0-32.256-26.112-57.856-57.856-57.856-32.256 0-57.856 26.112-57.856 57.856v34.816H360.96c-25.6 0-46.08 20.992-46.08 46.592v88.064h34.816c26.624 0 49.152 16.384 58.368 39.424v-69.632c0-25.6 20.48-46.592 46.08-46.592zm208.896 0h46.592v-11.776c0-25.6-20.992-46.592-46.592-46.592h-5.12c3.072 7.168 5.12 14.848 5.12 23.04v35.328zM442.368 654.336c34.816 0 62.464-28.16 62.464-62.464 0-34.816-28.16-62.464-62.464-62.464h-30.72c0 1.536.512 3.072.512 4.608 0 34.816-28.16 62.464-62.464 62.464H314.88v88.064c0 25.6 20.992 46.592 46.592 46.592h46.592v-76.8h34.304zM604.672 691.2c-10.752 0-20.992 3.072-30.208 8.192v31.232h88.064c-8.704-23.04-31.232-39.424-57.856-39.424z" fill="#99E999"/><path d="M407.552 528.896h4.096c-.512-6.656-1.536-12.8-4.096-18.432v18.432z" fill="#01C700"/><path d="M837.12 533.504h-34.816v-92.672c0-25.6-20.992-46.592-46.592-46.592h-93.184v-34.816c0-8.192-1.536-15.872-5.12-23.04-9.216-20.48-29.184-34.816-53.248-34.816-13.312 0-25.088 4.608-34.816 11.776-13.824 10.752-23.04 27.136-23.04 46.08v34.816h-92.16c-25.6 0-46.08 20.992-46.08 46.592v69.632c2.048 5.632 3.584 11.776 4.096 18.432h30.72c34.816 0 62.464 28.16 62.464 62.464 0 34.816-28.16 62.464-62.464 62.464h-34.816V742.4c0 25.6 20.992 46.592 46.592 46.592h88.064v-34.816c0-23.552 13.312-44.032 32.256-54.784 9.216-5.12 18.944-8.192 30.208-8.192 26.624 0 48.64 16.384 57.856 39.424 3.072 7.168 4.608 14.848 4.608 23.04v34.816h88.064c25.6 0 46.592-20.992 46.592-46.592v-92.672h34.816c32.256 0 57.856-26.112 57.856-57.856 0-31.744-26.112-57.856-57.856-57.856z" fill="#01C700"/><path d="M878.08 276.48h-29.696v-29.696c0-6.656-5.12-11.776-11.776-11.776s-11.776 5.12-11.776 11.776v29.696h-29.696c-6.656 0-11.776 5.12-11.776 11.776s5.12 11.776 11.776 11.776h29.696v29.696c0 6.656 5.12 11.776 11.776 11.776s11.776-5.12 11.776-11.776v-29.696h29.696c6.656 0 11.776-5.12 11.776-11.776s-5.12-11.776-11.776-11.776zM156.672 358.4c14.848-14.848 33.792-10.24 47.616-6.656 13.824 3.584 20.48 4.096 25.6-.512 5.12-5.12 4.096-11.264.512-25.6-3.584-13.824-8.192-32.768 6.656-47.616 14.848-14.848 33.28-10.24 47.104-6.656 13.824 3.584 20.48 4.608 25.6-.512 4.608-4.608 11.776-4.608 16.384 0s4.608 11.776 0 16.384c-14.848 14.848-33.28 10.24-47.104 6.656-13.824-3.584-20.48-4.608-25.6.512s-4.096 11.264-.512 25.6c3.584 13.824 8.192 32.768-6.656 47.104-14.848 14.848-33.792 10.24-47.616 6.656-13.824-3.584-20.48-4.608-25.6.512s-4.096 11.776-.512 25.6c3.584 13.824 8.192 32.768-6.656 47.616-4.608 4.608-11.776 4.608-16.384 0-4.608-4.608-4.608-11.776 0-16.384 5.12-5.12 4.096-11.264.512-25.6-3.584-13.312-8.192-32.256 6.656-47.104z" fill="#BEEEB9"/><path d="m211.763 529.044 46.346-46.34 46.336 46.335-46.336 46.341zM885.76 751.616a32.768 32.768 0 1 0 65.536 0 32.768 32.768 0 1 0-65.536 0z" fill="#EAF9E8"/><path d="M239.104 654.848h-89.088c-6.656 0-11.776 5.12-11.776 11.776v89.088c0 6.656 5.12 11.776 11.776 11.776h89.088c6.656 0 11.776-5.12 11.776-11.776v-89.088c-.512-6.656-5.632-11.776-11.776-11.776zm-11.776 89.088h-65.536V678.4h65.536v65.536z" fill="#BEEEB9"/></svg>