<svg class="icon" viewBox="0 0 1024 1024" xmlns="http://www.w3.org/2000/svg" width="128" height="128"><path d="M513.024 248.32c-128 0-231.936 103.936-231.936 231.936s103.936 231.936 231.936 231.936c128.512 0 232.448-103.936 232.448-231.936S641.536 248.32 513.024 248.32zm98.816 328.192-121.856-73.216V364.032H524.8v121.856l104.448 61.952-17.408 28.672z" fill="#AAD4FF"/><path d="M605.696 306.176c-128 0-231.936 103.936-231.936 231.936s103.936 231.936 231.936 231.936c128.512 0 232.448-103.936 232.448-231.936S734.208 306.176 605.696 306.176zm99.328 328.704-121.856-73.216V422.4h34.816v121.856l104.448 61.952-17.408 28.672z" fill="#2B95FF"/><path d="M839.168 259.584h-29.696V230.4c0-6.656-5.12-11.776-11.776-11.776s-11.776 5.12-11.776 11.776v29.696h-29.696c-6.656 0-11.776 5.12-11.776 11.776s5.12 11.776 11.776 11.776h29.696v28.672c0 6.656 5.12 11.776 11.776 11.776s11.776-5.12 11.776-11.776v-29.696h29.696c6.656 0 11.776-5.12 11.776-11.776s-5.12-11.264-11.776-11.264zM337.92 805.376c-20.48 0-30.72-16.384-38.4-28.672s-11.264-17.408-18.432-17.408c-6.656 0-10.752 5.12-18.432 17.408-7.168 12.288-17.408 28.672-38.4 28.672-20.48 0-30.72-16.384-38.4-28.672s-11.264-17.408-18.432-17.408c-6.656 0-11.776-5.12-11.776-11.776s5.12-11.776 11.776-11.776c20.48 0 30.72 16.384 38.4 28.672s11.264 17.408 18.432 17.408c6.656 0 10.752-5.12 18.432-17.408 7.168-12.288 17.408-28.672 38.4-28.672 20.48 0 30.72 16.384 38.4 28.672s11.264 17.408 18.432 17.408 10.752-5.632 18.432-17.408c7.168-12.288 17.408-28.672 38.4-28.672 6.656 0 11.776 5.12 11.776 11.776s-5.12 11.776-11.776 11.776c-7.168 0-10.752 5.12-18.432 17.408-7.68 11.776-17.92 28.672-38.4 28.672z" fill="#A8D4FF"/><path d="m109.89 552.07 46.342-46.337 46.34 46.336-46.335 46.341zm815.294 174.458-34.816-34.816v69.632z" fill="#D9EDFF"/></svg>