<svg class="icon" viewBox="0 0 1024 1024" xmlns="http://www.w3.org/2000/svg" width="128" height="128"><path d="M506.88 257.024H321.024c-25.6 0-46.08 20.992-46.08 46.592v371.2c0 25.6 20.48 46.592 46.08 46.592h279.04c25.6 0 46.592-20.992 46.592-46.592V396.288L506.88 257.024zm46.08 371.2H367.616v-46.592H552.96v46.592zm0-92.672H367.616V488.96H552.96v46.592zm-69.632-116.224V291.84l127.488 127.488H483.328z" fill="#AAD4FF"/><path d="M599.552 314.88H413.696c-25.6 0-46.08 20.992-46.08 46.592v371.2c0 25.6 20.48 46.592 46.08 46.592h279.04c25.6 0 46.592-20.992 46.592-46.592V454.144L599.552 314.88zm46.592 371.2H460.288V640h185.856v46.08zm0-92.672H460.288v-46.592h185.856v46.592zm-69.632-116.224V349.696L704 477.184H576.512z" fill="#2B95FF"/><path d="M827.904 233.472H798.72v-29.696c0-6.656-5.12-11.776-11.776-11.776s-11.776 5.12-11.776 11.776v29.696h-29.696c-6.656 0-11.776 5.12-11.776 11.776s5.12 11.776 11.776 11.776h29.696v29.696c0 6.656 5.12 11.776 11.776 11.776s11.776-5.12 11.776-11.776v-29.696h29.696c6.656 0 11.776-5.12 11.776-11.776s-5.632-11.776-12.288-11.776z" fill="#A8D4FF"/><path d="m805.663 620.442 46.336-46.336 46.346 46.336-46.341 46.336zm-18.719 211.046 34.816-34.816h-69.632zM183.296 234.496a32.768 32.768 0 1 0 65.536 0 32.768 32.768 0 1 0-65.536 0z" fill="#D9EDFF"/><path d="M281.088 794.112 192 705.024c-3.072-3.072-8.192-4.096-12.8-2.56-4.096 2.048-7.168 6.144-7.168 10.752v89.088c0 3.072 1.536 6.144 3.584 8.192s5.12 3.584 8.192 3.584h89.088c4.608 0 8.704-3.072 10.752-7.168 1.536-4.096.512-9.216-2.56-12.8zm-86.016-3.072v-49.152l49.152 49.152h-49.152z" fill="#A8D4FF"/></svg>