<svg class="icon" viewBox="0 0 1024 1024" xmlns="http://www.w3.org/2000/svg" width="128" height="128"><path d="M366.635 495.628c8.93-1.488 17.86-2.48 26.791-2.48h-7.442 241.613c10.419 0 20.341-1.49 30.264-3.97 44.651-12.403 77.395-52.093 77.395-101.21V185.055c0-57.55-49.116-101.21-107.659-110.636-37.21-5.954-91.287-8.93-128-8.93-36.713 0-71.938 3.472-103.194 8.93-91.287 15.876-107.66 49.116-107.66 110.636v66.48H512v37.21H216.31c-82.853 0-150.326 99.225-150.822 221.271V512c0 22.326 1.984 43.659 6.45 63.504 18.356 92.28 75.906 159.752 144.372 159.752h35.224V628.59c0-62.511 46.636-120.558 115.101-132.961zm23.814-283.784c-22.325 0-40.682-18.356-40.186-40.682 0-22.326 17.86-40.682 40.186-40.682s40.683 18.357 40.683 40.682c-.496 22.822-18.357 40.682-40.683 40.682z" fill="#0075AA"/><path d="M949.086 434.108c-21.333-84.837-76.403-145.364-141.395-145.364h-35.225v94.76c0 78.884-51.597 135.938-115.101 145.86a127.07 127.07 0 0 1-19.35 1.489H396.404c-10.419 0-20.341 1.488-30.264 3.969-44.651 11.907-77.395 48.62-77.395 96.744v202.915c0 57.55 58.046 91.783 115.1 108.156 67.97 19.845 142.389 23.317 224.25 0 54.075-15.38 107.16-46.637 107.16-108.157v-61.52H512v-37.705h295.69c58.543 0 109.644-49.612 134.45-122.046 10.419-30.264 16.372-64.497 16.372-101.21 0-27.287-3.472-53.581-9.426-77.892zm-316.528 372.59c22.326 0 40.187 18.357 40.187 40.683 0 22.325-18.357 40.682-40.187 40.682-22.325 0-40.682-18.357-40.682-40.683.496-22.325 18.357-40.682 40.682-40.682z" fill="#FFD400"/></svg>