<svg class="icon" viewBox="0 0 1024 1024" xmlns="http://www.w3.org/2000/svg" width="128" height="128"><path d="M212.07 435.405 441.276 551.73c22.63 11.503 36.59 32.734 36.59 55.706v232.687c0 49.493-60.927 80.452-109.67 55.671L138.991 779.47C116.395 768 102.4 746.769 102.4 723.797v-232.72c0-49.494 60.928-80.453 109.67-55.672zm709.53 55.637v232.755c0 22.972-13.96 44.203-36.59 55.638L655.837 895.829c-48.777 24.747-109.705-6.178-109.705-55.705V607.403c0-22.972 13.96-44.203 36.591-55.672l229.171-116.36c48.777-24.747 109.705 6.178 109.705 55.705zM545.007 128.444l207.019 120.934c44.032 25.703 44.032 90.01 0 115.712l-207.02 120.935c-20.41 11.946-45.601 11.946-66.047 0l-207.019-120.9c-44.032-25.737-44.032-90.044 0-115.747l207.02-120.934a65.365 65.365 0 0 1 66.048 0z" fill="#007AFF"/><path d="M900.267 494.933c-23.313 113.767-52.77 192.854-88.372 237.227-35.566 44.407-87.79 89.566-156.603 135.475-48.743 24.747-109.159 22.016-109.159-27.511V607.403c0-22.972 13.96-44.203 36.591-55.672l229.171-116.36c48.777-24.747 88.406 10.035 88.406 59.562zM212.07 435.405 441.276 551.73c22.63 11.503 36.59 32.734 36.59 55.706V665.6c0 49.493-100.215 228.523-148.957 203.742L138.99 779.469c-22.595-11.469-36.59-32.7-36.59-55.672v-232.72c0-49.494 60.928-80.453 109.67-55.672zM545.007 128.41 719.77 230.673c32.256 18.671 0 76.527-39.834 115.405l-134.93 112.06c-20.41 11.946-62.429 29.9-82.875 17.954L271.941 365.09c-44.033-25.736-44.033-90.044 0-115.746L478.958 128.41a65.365 65.365 0 0 1 66.048 0z" fill="#FFF" opacity=".2"/></svg>