<svg class="icon" viewBox="0 0 1024 1024" xmlns="http://www.w3.org/2000/svg" width="128" height="128"><path d="M93.09 93.09v139.637h279.274V93.091H93.09m0-46.546h279.273a46.545 46.545 0 0 1 46.545 46.546v139.636a46.545 46.545 0 0 1-46.545 46.546H93.09a46.545 46.545 0 0 1-46.546-46.546V93.091A46.545 46.545 0 0 1 93.09 46.545zm465.455 395.637v139.636H930.91V442.182H558.545m0-46.546H930.91a46.545 46.545 0 0 1 46.546 46.546v139.636a46.545 46.545 0 0 1-46.546 46.546H558.545A46.545 46.545 0 0 1 512 581.818V442.182a46.545 46.545 0 0 1 46.545-46.546zm0 372.364v139.636H930.91V768H558.545m0-46.545H930.91A46.545 46.545 0 0 1 977.455 768v139.636a46.545 46.545 0 0 1-46.546 46.546H558.545A46.545 46.545 0 0 1 512 907.636V768a46.545 46.545 0 0 1 46.545-46.545z" fill="#366CD9"/><path d="M200.145 279.273h46.546v586.472a46.545 46.545 0 0 1-46.546-46.545V279.273z" fill="#8DA6D9"/><path d="M512 479.418v46.546H246.69v-46.546zm0 339.782v46.545H246.69V819.2z" fill="#8DA6D9"/></svg>