<?xml version="1.0" standalone="no"?><!DOCTYPE svg PUBLIC "-//W3C//DTD SVG 1.1//EN" "http://www.w3.org/Graphics/SVG/1.1/DTD/svg11.dtd"><svg t="1722480510894" class="icon" viewBox="0 0 1242 1024" version="1.1" xmlns="http://www.w3.org/2000/svg" p-id="4753" xmlns:xlink="http://www.w3.org/1999/xlink" width="242.578125" height="200"><path d="M531.252 0c-282.83 0-512 229.17-512 512s229.17 512 512 512 512-229.17 512-512-229.169-512-512-512zM389.528 678.34h234.319c40.787 0 73.952-33.061 73.952-73.951v-12.257c0-13.596-11.02-24.72-24.72-24.72H500.457a24.66 24.66 0 0 1-24.72-24.719v-61.592a24.66 24.66 0 0 1 24.72-24.72h283.552c13.596 0 24.72 11.021 24.72 24.72v141.724c0 91.977-74.57 166.444-166.445 166.444H278.497c-13.596 0-24.72-11.02-24.72-24.72V419.51c0-102.071 82.81-184.881 184.88-184.881h345.35a24.66 24.66 0 0 1 24.72 24.72l-0.103 61.592a24.66 24.66 0 0 1-24.72 24.72H438.762c-40.787 0-73.952 33.061-73.952 73.951v234.216c0 13.493 11.02 24.514 24.719 24.514z" p-id="4754"></path></svg>