<?xml version="1.0" standalone="no"?><!DOCTYPE svg PUBLIC "-//W3C//DTD SVG 1.1//EN" "http://www.w3.org/Graphics/SVG/1.1/DTD/svg11.dtd"><svg t="1681267589538" class="icon" viewBox="0 0 1024 1024" version="1.1" xmlns="http://www.w3.org/2000/svg" p-id="10961" xmlns:xlink="http://www.w3.org/1999/xlink" width="128" height="128"><path d="M513.024 248.32c-128 0-231.936 103.936-231.936 231.936s103.936 231.936 231.936 231.936c128.512 0 232.448-103.936 232.448-231.936s-103.936-231.936-232.448-231.936z m98.816 328.192L489.984 503.296V364.032h34.816v121.856l104.448 61.952-17.408 28.672z" fill="#AAD4FF" p-id="10962"></path><path d="M605.696 306.176c-128 0-231.936 103.936-231.936 231.936s103.936 231.936 231.936 231.936c128.512 0 232.448-103.936 232.448-231.936s-103.936-231.936-232.448-231.936z m99.328 328.704l-121.856-73.216V422.4h34.816v121.856l104.448 61.952-17.408 28.672z" fill="#2B95FF" p-id="10963"></path><path d="M839.168 259.584h-29.696V230.4c0-6.656-5.12-11.776-11.776-11.776-6.656 0-11.776 5.12-11.776 11.776v29.696h-29.696c-6.656 0-11.776 5.12-11.776 11.776s5.12 11.776 11.776 11.776h29.696V312.32c0 6.656 5.12 11.776 11.776 11.776 6.656 0 11.776-5.12 11.776-11.776v-29.696h29.696c6.656 0 11.776-5.12 11.776-11.776s-5.12-11.264-11.776-11.264zM337.92 805.376c-20.48 0-30.72-16.384-38.4-28.672-7.68-12.288-11.264-17.408-18.432-17.408-6.656 0-10.752 5.12-18.432 17.408-7.168 12.288-17.408 28.672-38.4 28.672-20.48 0-30.72-16.384-38.4-28.672-7.68-12.288-11.264-17.408-18.432-17.408-6.656 0-11.776-5.12-11.776-11.776 0-6.656 5.12-11.776 11.776-11.776 20.48 0 30.72 16.384 38.4 28.672 7.68 12.288 11.264 17.408 18.432 17.408 6.656 0 10.752-5.12 18.432-17.408 7.168-12.288 17.408-28.672 38.4-28.672 20.48 0 30.72 16.384 38.4 28.672 7.68 12.288 11.264 17.408 18.432 17.408s10.752-5.632 18.432-17.408c7.168-12.288 17.408-28.672 38.4-28.672 6.656 0 11.776 5.12 11.776 11.776 0 6.656-5.12 11.776-11.776 11.776-7.168 0-10.752 5.12-18.432 17.408-7.68 11.776-17.92 28.672-38.4 28.672z" fill="#A8D4FF" p-id="10964"></path><path d="M109.89056 552.06912l46.34112-46.336 46.34112 46.336-46.336 46.34112zM925.184 726.528l-34.816-34.816v69.632z" fill="#D9EDFF" p-id="10965"></path></svg>