<?xml version="1.0" standalone="no"?><!DOCTYPE svg PUBLIC "-//W3C//DTD SVG 1.1//EN" "http://www.w3.org/Graphics/SVG/1.1/DTD/svg11.dtd"><svg t="1681267184963" class="icon" viewBox="0 0 1024 1024" version="1.1" xmlns="http://www.w3.org/2000/svg" p-id="17303" xmlns:xlink="http://www.w3.org/1999/xlink" width="128" height="128"><path d="M93.090909 93.090909v139.636364h279.272727V93.090909H93.090909m0-46.545454h279.272727a46.545455 46.545455 0 0 1 46.545455 46.545454v139.636364a46.545455 46.545455 0 0 1-46.545455 46.545454H93.090909a46.545455 46.545455 0 0 1-46.545454-46.545454V93.090909a46.545455 46.545455 0 0 1 46.545454-46.545454z" fill="#366CD9" p-id="17304"></path><path d="M558.545455 442.181818v139.636364h372.363636v-139.636364h-372.363636m0-46.545454h372.363636a46.545455 46.545455 0 0 1 46.545454 46.545454v139.636364a46.545455 46.545455 0 0 1-46.545454 46.545454h-372.363636a46.545455 46.545455 0 0 1-46.545455-46.545454v-139.636364a46.545455 46.545455 0 0 1 46.545455-46.545454z" fill="#366CD9" p-id="17305"></path><path d="M558.545455 768v139.636364h372.363636v-139.636364h-372.363636m0-46.545455h372.363636a46.545455 46.545455 0 0 1 46.545454 46.545455v139.636364a46.545455 46.545455 0 0 1-46.545454 46.545454h-372.363636a46.545455 46.545455 0 0 1-46.545455-46.545454v-139.636364a46.545455 46.545455 0 0 1 46.545455-46.545455z" fill="#366CD9" p-id="17306"></path><path d="M200.145455 279.272727h46.545454v586.472728a46.545455 46.545455 0 0 1-46.545454-46.545455V279.272727z" fill="#8DA6D9" p-id="17307"></path><path d="M512 479.418182v46.545454H246.690909v-46.545454z" fill="#8DA6D9" p-id="17308"></path><path d="M512 819.2v46.545455H246.690909v-46.545455z" fill="#8DA6D9" p-id="17309"></path></svg>